<?xml version="1.0" encoding="iso-8859-1"?>
<!-- Generator: Adobe Illustrator 19.0.0, SVG Export Plug-In . SVG Version: 6.00 Build 0)  -->
<svg version="1.1" id="Layer_1" xmlns="http://www.w3.org/2000/svg" xmlns:xlink="http://www.w3.org/1999/xlink" x="0px" y="0px"
	 viewBox="0 0 512 512" style="enable-background:new 0 0 512 512;" xml:space="preserve">
<g>
	<path style="fill:#2E9ADA;" d="M415.289,245.262c-37.127,0-67.333-30.206-67.333-67.333s30.206-67.333,67.333-67.333
		s67.333,30.206,67.333,67.333C482.621,215.056,452.416,245.262,415.289,245.262z"/>
	<path style="fill:#2E9ADA;" d="M494.933,401.403H335.644c-9.425,0-17.067-7.641-17.067-17.067v-30.893
		c0-53.327,43.385-96.711,96.711-96.711S512,300.117,512,353.444v30.893C512,393.762,504.359,401.403,494.933,401.403z"/>
</g>
<g>
	<path style="fill:#60BFE1;" d="M256,245.262c-37.127,0-67.333-30.206-67.333-67.333s30.206-67.333,67.333-67.333
		s67.333,30.206,67.333,67.333C323.333,215.056,293.127,245.262,256,245.262z"/>
	<path style="fill:#60BFE1;" d="M335.644,401.403H176.356c-9.425,0-17.067-7.641-17.067-17.067v-30.893
		c0-53.327,43.385-96.711,96.711-96.711s96.711,43.385,96.711,96.711v30.893C352.711,393.762,345.07,401.403,335.644,401.403z"/>
</g>
<g>
	<path style="fill:#C7E5F4;" d="M96.711,245.262c-37.127,0-67.333-30.206-67.333-67.333s30.206-67.333,67.333-67.333
		s67.333,30.206,67.333,67.333S133.838,245.262,96.711,245.262z"/>
	<path style="fill:#C7E5F4;" d="M176.356,401.403H17.067C7.641,401.403,0,393.762,0,384.337v-30.893
		c0-53.327,43.385-96.711,96.711-96.711s96.711,43.385,96.711,96.711v30.893C193.422,393.762,185.781,401.403,176.356,401.403z"/>
</g>
<g>
</g>
<g>
</g>
<g>
</g>
<g>
</g>
<g>
</g>
<g>
</g>
<g>
</g>
<g>
</g>
<g>
</g>
<g>
</g>
<g>
</g>
<g>
</g>
<g>
</g>
<g>
</g>
<g>
</g>
</svg>
