<svg class="svg-icon" style="width: 1em; height: 1em;vertical-align: middle;fill: currentColor;overflow: hidden;" viewBox="0 0 1024 1024" version="1.1" xmlns="http://www.w3.org/2000/svg"><path d="M512.3 289.1m-224.9 0a224.9 224.9 0 1 0 449.8 0 224.9 224.9 0 1 0-449.8 0Z" fill="#0C2B4A" /><path d="M528 513.5c-5-0.2-10-0.3-15-0.3-5.4 0-10.7 0.1-16 0.3-221.6 7.8-402 177.1-427.3 393.7-3.3 27.9 18.5 52.3 46.5 52.3h793.5c28 0 49.8-24.5 46.5-52.3C931 690.2 750 520.8 528 513.5z m-16.7 416.8l-54.9-54.9L492 612.3l-30.8-30.8c-6.2-6.2-6.2-16.3 0-22.5l14.8-14.8c4-4 9.4-6.2 15.1-6.2h40.6c5.6 0 11.1 2.2 15 6.2l14.8 14.8c6.2 6.2 6.2 16.3 0 22.5l-30.8 30.8 35.6 263.1-55 54.9z" fill="#0C2B4A" /></svg>